# xmcd
#
# Track frame offsets: 
#        150
#        18251
#        31590
#        52847
#        67305
#        81252
#        94687
#        107368
#        130660
#        147194
#
# Disc length: 2119 seconds
#
# Revision: 0
# Processed by: cddbd v1.5.2PL0 Copyright (c) Steve Scherf et al.
# Submitted via: ExactAudioCopy v0.99pb4
#
DISCID=7508450a
DTITLE=Caleb Stine - Eyes So Strong And Clean
DYEAR=2009
DGENRE=Country
TTITLE0=Eyes So Strong and Clean
TTITLE1=Rome
TTITLE2=Comes From the West
TTITLE3=Home From Work
TTITLE4=How Long Can I Wonder?
TTITLE5=Sweetheart
TTITLE6=Right Where It Is
TTITLE7=Welcome to Rock and Roll
TTITLE8=If This Must Be Goodbye
TTITLE9=Combustion Engine
EXTD=
EXTT0=
EXTT1=
EXTT2=
EXTT3=
EXTT4=
EXTT5=
EXTT6=
EXTT7=
EXTT8=
EXTT9=
PLAYORDER=
